<svg xmlns="http://www.w3.org/2000/svg" viewBox="0 -0.5 22 19" shape-rendering="crispEdges">
<metadata>Made with Pixels to Svg https://codepen.io/shshaw/pen/XbxvNj</metadata>
<path stroke="rgba(16,24,33,0.7372549019607844)" d="M7 0h1M14 0h1" />
<path stroke="rgba(15,24,32,0.9058823529411765)" d="M8 0h1M13 0h1" />
<path stroke="rgba(16,24,32,0.9803921568627451)" d="M9 0h1M12 0h1" />
<path stroke="#182027" d="M10 0h2" />
<path stroke="rgba(0,0,0,0.00392156862745098)" d="M15 0h1" />
<path stroke="#000000" d="M5 1h1M16 1h1M4 2h2M17 2h1M3 3h1M18 3h1M1 5h1M20 5h1M3 15h1M18 15h1M4 16h1M17 16h1M5 17h1M16 17h1M8 18h2M12 18h2" />
<path stroke="rgba(16,24,32,0.996078431372549)" d="M6 1h1" />
<path stroke="#101820" d="M7 1h1M14 1h1M16 2h1M4 3h1M9 3h5M17 3h1M3 4h1M9 4h1M11 4h1M13 4h1M18 4h1M2 5h1M19 5h1M1 6h1M7 6h8M20 6h1M1 7h1M6 7h1M10 7h2M15 7h1M20 7h1M1 8h1M5 8h1M10 8h1M16 8h1M20 8h1M1 9h1M5 9h1M10 9h1M20 9h1M1 10h1M10 10h2M20 10h1M1 11h1M10 11h2M20 11h1M1 12h2M19 12h2M2 13h1M19 13h1M3 14h1M9 14h1M11 14h1M13 14h1M18 14h1M4 15h1M9 15h5M17 15h1M5 16h1M16 16h1M7 17h1M14 17h1" />
<path stroke="#10c840" d="M8 1h6M6 2h10M5 3h3M15 3h2M4 4h4M15 4h3M3 5h16M2 6h5M15 6h5M2 7h4M16 7h4M2 8h3M17 8h3M2 9h3M17 9h3M2 10h3M17 10h3M2 11h4M16 11h4M3 12h4M15 12h4M3 13h16M4 14h4M15 14h3M5 15h3M15 15h2M6 16h10M8 17h6" />
<path stroke="rgba(16,24,31,0.996078431372549)" d="M15 1h1" />
<path stroke="#ffffff" d="M8 3h1M14 3h1M8 4h1M10 4h1M12 4h1M14 4h1M8 14h1M10 14h1M12 14h1M14 14h1M8 15h1M14 15h1" />
<path stroke="#0f1820" d="M2 4h1" />
<path stroke="rgba(15,24,32,0.996078431372549)" d="M19 4h1" />
<path stroke="rgba(255,255,212,0.023529411764705882)" d="M20 4h1" />
<path stroke="rgba(0,42,42,0.023529411764705882)" d="M0 6h1" />
<path stroke="#2d343a" d="M0 7h1M21 7h1M0 10h1M21 10h1" />
<path stroke="#d24040" d="M7 7h3M12 7h3M6 8h2M13 8h3M6 9h2M13 9h2M16 9h1M5 10h3M12 10h2M16 10h1M6 11h3M12 11h1M15 11h1M7 12h8" />
<path stroke="#171f27" d="M0 8h1M21 8h1M0 9h1M21 9h1" />
<path stroke="#f0f0dc" d="M8 8h2M11 8h2M8 9h2M11 9h2M8 10h2M9 11h1" />
<path stroke="#fac800" d="M15 9h1M14 10h2M13 11h2" />
<path stroke="rgba(15,24,32,0.9686274509803922)" d="M2 14h1M19 14h1" />
<path stroke="rgba(16,24,32,0.9490196078431372)" d="M6 17h1M15 17h1" />
<path stroke="#444a50" d="M7 18h1M14 18h1" />
<path stroke="rgba(16,24,32,0.9607843137254902)" d="M10 18h2" />
</svg>